<?xml version="1.0" encoding="UTF-8"?>
<svg id="Layer_1" xmlns="http://www.w3.org/2000/svg" version="1.1" viewBox="0 0 98.9 22.4">
  <!-- Generator: Adobe Illustrator 30.5.1, SVG Export Plug-In . SVG Version: 2.1.4 Build 3)  -->
  <defs>
    <style>
      .st0 {
        fill: #fff;
      }
    </style>
  </defs>
  <g id="Bumper">
    <path id="Upper" class="st0" d="M0,15.5c0-.79.41-1.52,1.1-1.9C5.6,10.7,24.5,0,52.6,0s41.1,5.9,45.1,8c.75.38,1.22,1.16,1.2,2,0,0-9.8-2.9-47.5-2.9S0,15.5,0,15.5Z"/>
    <path id="Lower" class="st0" d="M0,22.4h0v-6.9S13.7,7.1,51.4,7.1s47.5,2.9,47.5,2.9v11h0c-7.7-1.3-21.2-2.6-44.1-2.6-28.5,0-45.9,2.3-54.8,4Z"/>
  </g>
</svg>