<?xml version="1.0" encoding="UTF-8"?>
<svg id="Layer_1" xmlns="http://www.w3.org/2000/svg" version="1.1" viewBox="0 0 28.4 46.7">
  <!-- Generator: Adobe Illustrator 30.5.1, SVG Export Plug-In . SVG Version: 2.1.4 Build 3)  -->
  <defs>
    <style>
      .st0 {
        fill: #fff;
      }
    </style>
  </defs>
  <g id="Button_Group">
    <path id="Outter" class="st0" d="M14.2,1.7c6.9,0,12.5,5.6,12.5,12.5h0v18.3c0,6.9-5.6,12.5-12.5,12.5S1.7,39.4,1.7,32.5V14.2C1.7,7.3,7.3,1.7,14.2,1.7M14.2,0C6.37.03.03,6.37,0,14.2v18.3c0,7.84,6.36,14.2,14.2,14.2s14.2-6.36,14.2-14.2h0V14.2C28.37,6.37,22.03.03,14.2,0Z"/>
    <path id="Button" class="st0" d="M14.2,1.7C7.3,1.7,1.7,7.3,1.7,14.2v18.3c0,6.9,5.6,12.5,12.5,12.5s12.5-5.6,12.5-12.5V14.2c0-6.9-5.6-12.5-12.5-12.5h0Z"/>
  </g>
</svg>