<?xml version="1.0" encoding="UTF-8"?>
<svg id="Layer_1" xmlns="http://www.w3.org/2000/svg" version="1.1" viewBox="0 0 200.45 90.9">
  <!-- Generator: Adobe Illustrator 30.5.1, SVG Export Plug-In . SVG Version: 2.1.4 Build 3)  -->
  <defs>
    <style>
      .st0 {
        fill: #fff;
      }

      .st1 {
        opacity: .08;
      }
    </style>
  </defs>
  <g id="R2_Pressed">
    <g id="Outline">
      <path id="Upper" class="st0" d="M200,90.8s-32.7-3.2-50.6-3.2-48.3,2.4-48.3,2.4c0,0,3.1-44.7,4.8-52s7.7-21.3,16.9-27.9S134.8,0,145.6,0s25.4,6.4,34.6,21.4c9.2,15,19.8,69.4,19.8,69.4h0Z"/>
      <path id="Lower" class="st0" d="M101.6,83.2s26.1-4.4,49-4.4,47.9,4.4,47.9,4.4c1,4.7,1.6,7.6,1.6,7.6,0,0-32.7-3.2-50.6-3.2s-48.3,2.4-48.3,2.4c0,0,0-2.7.4-6.8Z"/>
    </g>
    <g id="R2" class="st1">
      <path id="_x32_" class="st0" d="M151.6,65.7l-3.2,2.6c-1.21,1.19-1.93,2.8-2,4.5h9.8v-2.6h-6.2c.56-.78,1.27-1.42,2.1-1.9.99-.57,1.9-1.28,2.7-2.1.84-.89,1.31-2.07,1.3-3.3.05-1.25-.47-2.46-1.4-3.3-.98-.82-2.22-1.25-3.5-1.2-3.1,0-4.7,1.7-4.7,5h2.7c0-1.8.7-2.7,2.1-2.7,1.01-.11,1.91.62,2.01,1.63.02.16,0,.32,0,.47-.08,1.18-.71,2.25-1.7,2.9h0Z"/>
      <path id="R" class="st0" d="M134,67.2h3c1.5,0,2.3.6,2.4,1.9s.2,2.5.3,3.8h3.3v-.4c-.5-.2-.7-.7-.7-1.5,0-.27.03-.54.1-.8v-.7c.16-1.42-.55-2.8-1.8-3.5,1.44-.48,2.35-1.89,2.2-3.4.08-1.15-.4-2.27-1.3-3-.91-.71-2.05-1.07-3.2-1h-7.3v14.2h3v-5.6ZM134,61h3.7c1.4,0,2.1.6,2.1,1.9s-.8,1.9-2.3,1.9h-3.5v-3.8Z"/>
    </g>
  </g>
  <g id="L2_Pressed">
    <g id="Outline1">
      <path id="Upper1" class="st0" d="M.1,90.8s32.7-3.2,50.6-3.2,48.3,2.4,48.3,2.4c0,0-3.1-44.7-4.8-52s-7.7-21.3-16.9-27.9S65.3,0,54.5,0,29.1,6.4,19.9,21.4C10.7,36.4.1,90.8.1,90.8Z"/>
      <path id="Lower1" class="st0" d="M98.5,83.2s-26.1-4.4-49-4.4S1.6,83.2,1.6,83.2c-1,4.7-1.6,7.6-1.6,7.6,0,0,32.7-3.2,50.6-3.2s48.3,2.4,48.3,2.4c0,0,0-2.7-.4-6.8Z"/>
    </g>
    <g id="L2" class="st1">
      <path id="_x32_1" class="st0" d="M64.6,65.7l-3.2,2.6c-1.21,1.19-1.93,2.8-2,4.5h9.8v-2.6h-6.2c.56-.78,1.27-1.42,2.1-1.9.99-.57,1.9-1.28,2.7-2.1.84-.89,1.31-2.07,1.3-3.3.05-1.25-.47-2.46-1.4-3.3-.98-.82-2.22-1.25-3.5-1.2-3.1,0-4.7,1.7-4.7,5h2.7c0-1.8.7-2.7,2.1-2.7,1.01-.11,1.91.62,2.01,1.63.02.16.01.32-.01.47-.03,1.19-.68,2.29-1.7,2.9Z"/>
      <polygon id="L" class="st0" points="56.1 70.2 49 70.2 49 58.5 46 58.5 46 72.8 56.1 72.8 56.1 70.2"/>
    </g>
  </g>
  <g id="R2_Pressed1" data-name="R2_Pressed">
    <g id="Outline2" data-name="Outline">
      <path id="Upper2" data-name="Upper" class="st0" d="M200.45,90.9s-32.7-3.2-50.6-3.2-48.3,2.4-48.3,2.4c0,0,3.1-44.7,4.8-52s7.7-21.3,16.9-27.9S135.25.1,146.05.1s25.4,6.4,34.6,21.4c9.2,15,19.8,69.4,19.8,69.4h0Z"/>
    </g>
  </g>
  <g id="L2_Pressed1" data-name="L2_Pressed">
    <g id="Outline11" data-name="Outline1">
      <path id="Upper11" data-name="Upper1" class="st0" d="M.55,90.9s32.7-3.2,50.6-3.2,48.3,2.4,48.3,2.4c0,0-3.1-44.7-4.8-52s-7.7-21.3-16.9-27.9S65.75.1,54.95.1,29.55,6.5,20.35,21.5C11.15,36.5.55,90.9.55,90.9Z"/>
    </g>
  </g>
</svg>